<svg width="24" height="23" viewBox="0 0 24 23" fill="none" xmlns="http://www.w3.org/2000/svg">
<path d="M12.2196 22C9.96474 22 7.87142 21.3258 6.14095 20.1727C5.32484 20.5911 3.4889 20.6838 2.68786 20.5911C1.52336 20.4567 0.302213 19.5179 1.47816 18.6043C3.29964 17.1901 2.81082 16.6297 2.81082 16.6297C1.93684 15.1129 1.43898 13.3631 1.43898 11.5C1.43898 5.70077 6.26572 1 12.2196 1C18.1735 1 23.0002 5.70077 23.0002 11.5C23.0002 17.2992 18.1735 22 12.2196 22ZM12.2196 2.5368C7.10052 2.5368 2.95065 6.5786 2.95065 11.5645C2.95065 13.2803 3.44249 14.8846 4.29536 16.2506C4.29536 16.2506 4.90172 17.7851 3.34484 18.9276C4.32008 19.248 6.38084 18.6588 6.48693 18.6588C8.0643 19.8694 10.0551 20.5923 12.2196 20.5923C17.3387 20.5923 21.4879 16.5505 21.4879 11.5645C21.4879 6.5786 17.3387 2.5368 12.2196 2.5368ZM17.1801 14.1464C16.044 14.1464 15.1706 13.4194 15.1706 12.1971C15.1706 10.9748 15.997 10.1932 17.244 10.1932C18.4356 10.1932 19.2301 10.9901 19.2301 12.1273C19.2295 13.5121 18.2205 14.1464 17.1801 14.1464ZM17.2115 11.0282C16.6316 11.0282 16.4171 11.6086 16.4171 12.1654C16.4171 12.815 16.6949 13.3026 17.2115 13.3026C17.6804 13.3026 17.9818 12.8461 17.9818 12.1654C17.9824 11.6009 17.76 11.0282 17.2115 11.0282ZM13.8361 14.0613C13.8361 14.0613 13.3756 14.0613 13.1858 14.0613C12.8766 14.0613 12.9387 13.6265 12.9387 13.6265V12.0029C12.9387 11.4536 12.756 11.1362 12.3667 11.1362C12.0888 11.1362 11.8899 11.3216 11.8103 11.5464C11.7784 11.6314 11.7627 11.7553 11.7627 11.848V13.6893C11.7627 13.6893 11.7663 14.0607 11.4282 14.0607C11.1829 14.0607 10.8911 14.0607 10.8911 14.0607C10.8911 14.0607 10.5868 14.0379 10.5868 13.6576C10.5868 13.0427 10.5868 11.9407 10.5868 11.9407C10.5868 11.4613 10.412 11.1362 10.0304 11.1362C9.72063 11.1362 9.538 11.3686 9.46627 11.5616C9.42649 11.6543 9.41865 11.7629 9.41865 11.8556V13.6576C9.41865 13.6576 9.46085 14.0607 9.15043 14.0607C8.99613 14.0607 8.80024 14.0607 8.62967 14.0607C8.24331 14.0607 8.24331 13.6576 8.24331 13.6576V11.4842C8.24331 11.1151 8.22161 10.5054 8.22161 10.5054C8.22161 10.5054 8.21378 10.2771 8.46693 10.2771C8.62123 10.2771 8.81652 10.2771 8.97142 10.2771C9.2101 10.2771 9.2529 10.5042 9.2529 10.5042L9.28364 10.7882H9.30715C9.47411 10.5482 9.81586 10.1926 10.4825 10.1926C10.9828 10.1926 11.38 10.4403 11.5469 10.8346H11.5626C11.7054 10.6409 11.8802 10.4866 12.0629 10.3781C12.2774 10.2542 12.5155 10.1926 12.8018 10.1926C13.5486 10.1926 14.1122 10.7031 14.1122 11.8327C14.1122 11.8327 14.1122 13.0163 14.1122 13.6582C14.114 14.0343 13.8361 14.0613 13.8361 14.0613ZM6.34589 9.49377C5.96495 9.49377 5.7106 9.23089 5.71843 8.90581C5.7106 8.56547 5.96435 8.31022 6.35372 8.31022C6.74309 8.31022 6.98901 8.56547 6.99684 8.90581C6.99745 9.23089 6.74309 9.49377 6.34589 9.49377ZM5.99569 10.2777C6.27536 10.2777 6.69487 10.2777 6.69487 10.2777C6.69487 10.2777 6.95767 10.2801 6.95767 10.5682C6.95767 11.2571 6.95767 13.721 6.95767 13.721C6.95767 13.721 6.97394 14.0607 6.6786 14.0607C6.38446 14.0607 5.96254 14.0607 5.96254 14.0607C5.96254 14.0607 5.74978 14.0484 5.74978 13.7685C5.74978 12.9212 5.74978 10.5206 5.74978 10.5206C5.74978 10.5206 5.75098 10.2777 5.99569 10.2777Z" fill="white" stroke="white" stroke-width="0.3"/>
</svg>
